<svg width="20" height="20" viewBox="0 0 20 20" fill="none" xmlns="http://www.w3.org/2000/svg">
<path fill-rule="evenodd" clip-rule="evenodd" d="M8.8605 6.33823C9.37855 5.6401 9.56431 4.90432 8.97841 4.25485C7.66359 2.41506 6.77934 1.27734 6.2247 0.72944C5.17024 -0.312188 3.43565 -0.171291 2.52242 0.72855C2.03191 1.21186 1.86585 1.37784 1.36221 1.88939C-1.44316 4.69627 0.267702 10.6299 4.81578 15.1825C9.36283 19.734 15.2959 21.4457 18.1072 18.6329C18.5719 18.1849 18.9654 17.7912 19.2757 17.4632C20.1707 16.5173 20.3065 14.8592 19.2698 13.782C18.7383 13.2297 17.6534 12.3882 15.7362 11.0168C15.149 10.4917 14.4528 10.6055 13.8145 11.0243C13.5075 11.2257 13.284 11.4295 12.8621 11.8518L12.096 12.6184C11.995 12.7194 10.6248 12.0332 9.29465 10.7017C7.96379 9.36956 7.27804 7.99922 7.37848 7.89879L8.14517 7.13168C8.27904 6.99768 8.34303 6.93281 8.42511 6.84655C8.5961 6.66684 8.73767 6.50375 8.8605 6.33823ZM13.5093 14.0327L14.2756 13.2659C14.5078 13.0335 14.6583 12.8906 14.7807 12.7921C16.4602 13.9981 17.4329 14.7565 17.8302 15.1693C18.0687 15.4172 18.0316 15.8694 17.8243 16.0886C17.5373 16.3919 17.1645 16.7649 16.707 17.2062C14.8891 19.0248 10.0998 17.6431 6.22949 13.7689C2.35793 9.89349 0.97682 5.10345 2.78094 3.29832C3.28255 2.78887 3.44147 2.63002 3.92497 2.15361C4.10626 1.97498 4.60006 1.93487 4.82059 2.15272C5.24761 2.57455 6.03973 3.5888 7.20497 5.21197C7.14464 5.28687 7.0693 5.3715 6.97762 5.46786C6.91032 5.53859 6.85426 5.59542 6.73169 5.71811L5.96575 6.48447C4.66275 7.78738 5.77243 10.0049 7.88116 12.1157C9.98844 14.225 12.2067 15.336 13.5093 14.0327ZM11.6586 0.0701904C15.9814 0.594175 19.4091 4.02188 19.9331 8.34476L17.9579 8.67396C17.5765 5.19195 14.8114 2.42681 11.3293 2.04543L11.6586 0.0701904ZM11.0001 4.02252C13.6414 4.25876 15.745 6.36235 15.9812 9.00361L13.9996 9.33387C13.9155 7.53316 12.4706 6.08819 10.6699 6.0041L11.0001 4.02252Z" fill="white"/>
</svg>
